<svg version="1.2" xmlns="http://www.w3.org/2000/svg" viewBox="0 0 300 62" width="300" height="62">
	<title>ergaz-logo-66cf0492-e03b-4a01-8f3b-3db9a877b451-svg</title>
	<defs>
		<clipPath clipPathUnits="userSpaceOnUse" id="cp1">
			<path d="m0 0h294v62h-294z"/>
		</clipPath>
		<clipPath clipPathUnits="userSpaceOnUse" id="cp2">
			<path d="m22 22.09q-0.05 0.22-0.1 0.43-0.05 0.22-0.09 0.44-0.03 0.22-0.07 0.44-0.03 0.22-0.05 0.44-0.09 0.86-0.15 1.72-0.06 0.85-0.1 1.72-0.03 0.86-0.04 1.72-0.01 0.86 0.01 1.72c0 2.15 0.07 3.96 0.21 5.56q-2.82 2.01-5.48 4.23-2.66 2.22-5.15 4.62-2.49 2.41-4.79 5-2.3 2.59-4.4 5.34c5.77-17.18 12.72-27.26 20.2-33.38zm13.49 0.21c1.25-0.76 3.93-1.11 8-1.11q0.88-0.04 1.77-0.01 0.88 0.03 1.76 0.13 0.88 0.11 1.75 0.29 0.87 0.17 1.72 0.42c-3.72 1.32-7.65 2.85-11.59 4.59h-5.48q-0.02-0.35 0-0.69 0.03-0.35 0.09-0.69 0.06-0.35 0.16-0.68 0.1-0.33 0.24-0.65 0.13-0.25 0.29-0.48 0.17-0.23 0.36-0.44 0.2-0.2 0.43-0.37 0.22-0.17 0.47-0.31m4.28-8.41c14.55-3.34 30.07-1.53 43.87-12.16-3.8 8.41-11.64 12.44-21.64 16.2-1.55-1.81-4.01-2.92-7.31-3.48q-0.56-0.09-1.12-0.17-0.56-0.07-1.12-0.13-0.57-0.06-1.13-0.11-0.56-0.05-1.13-0.08c-1.89-0.07-4.14-0.14-6.81-0.14-1.26 0-2.46 0.07-3.58 0.07"/>
		</clipPath>
		<linearGradient id="g1" x1="3.2" y1="52.2" x2="84.2" y2="7.3" gradientUnits="userSpaceOnUse">
			<stop offset="0" stop-color="#575756"/>
			<stop offset=".4" stop-color="#929292"/>
			<stop offset=".6" stop-color="#b2b2b2"/>
			<stop offset=".7" stop-color="#cdcdcd"/>
			<stop offset=".8" stop-color="#ffffff"/>
			<stop offset=".9" stop-color="#f8f8f8"/>
			<stop offset=".9" stop-color="#cccccc"/>
			<stop offset="1" stop-color="#9d9d9c"/>
		</linearGradient>
		<clipPath clipPathUnits="userSpaceOnUse" id="cp3">
			<path d="m-47-218h387v461.55h-387z"/>
		</clipPath>
	</defs>
	<style>
		.s0 { fill: #052c5a } 
		.s1 { fill: url(#g1) } 
		.s2 { fill: #ffffff } 
	</style>
	<g id="Clip-Path" clip-path="url(#cp1)">
		<g id="Layer">
			<path id="Layer" fill-rule="evenodd" class="s0" d="m83.6 1.7c-1.4 22-9.1 33.1-20.3 39.3q0.3-0.6 0.5-1.2 0.2-0.5 0.3-1.1 0.2-0.6 0.3-1.2 0.1-0.6 0.1-1.3h-11.9q0 0.3-0.1 0.6-0.1 0.3-0.2 0.5-0.1 0.3-0.2 0.5-0.2 0.2-0.3 0.4-0.3 0.3-0.7 0.4-0.3 0.2-0.6 0.3-0.4 0.2-0.8 0.2-0.3 0.1-0.7 0.1-0.7 0.1-1.5 0.2-0.7 0-1.5 0.1-0.7 0-1.5 0-0.7 0-1.5 0-0.5 0-0.9 0-0.5 0-1 0-0.4 0-0.9 0-0.4-0.1-0.9-0.1v-6.3h25.4l0.1-3.3c0-5.2-0.8-9-2.2-11.2q-0.1-0.1-0.2-0.2 0-0.1-0.1-0.2-0.1-0.1-0.2-0.2-0.1 0-0.2-0.1c10-3.8 17.9-7.8 21.7-16.2zm-44.3 37.7q-0.6 0-1.1-0.1-0.6 0-1.1-0.2-0.6-0.1-1.1-0.3-0.5-0.2-1-0.5-0.2-0.1-0.4-0.4-0.2-0.2-0.4-0.4-0.1-0.2-0.3-0.5-0.1-0.2-0.2-0.5-0.1-0.4-0.1-0.8-0.1-0.5-0.1-0.9-0.1-0.4-0.1-0.8 0-0.5 0-0.9h5.9v6.3q0 0 0 0zm2.8 7.8c0.9 0 2.1 0 3.1 0-2 0.4-3.9 0.7-5.9 1.1v-1.1c0.9 0 1.8 0 2.8 0zm-2.8-20.8c3.8-1.7 7.6-3.1 11.2-4.4q0.2 0 0.3 0.1 0.2 0.1 0.4 0.2 0.2 0.1 0.3 0.2 0.2 0.1 0.3 0.2 0.1 0.2 0.2 0.3 0.2 0.2 0.2 0.4 0.1 0.1 0.2 0.3 0 0.2 0.1 0.4 0 0.3 0.1 0.6 0.1 0.3 0.1 0.6 0 0.3 0 0.6 0.1 0.3 0 0.7h-13.8q0-0.1 0.1-0.1 0 0 0.1 0 0-0.1 0.1-0.1 0.1 0 0.1 0zm0 20.7q-1 0-2 0-1 0-2-0.1-1-0.1-2-0.2-0.9-0.1-1.9-0.3-0.8-0.1-1.6-0.3-0.8-0.2-1.6-0.5-0.7-0.3-1.5-0.7-0.7-0.4-1.3-0.8-0.6-0.5-1.1-1-0.5-0.5-0.9-1.1-0.4-0.6-0.7-1.2-0.3-0.7-0.5-1.3-0.1-0.4-0.2-0.9-0.1-0.4-0.2-0.8 0-0.4-0.1-0.8-0.1-0.4-0.1-0.9-2.8 2-5.5 4.3-2.6 2.2-5.1 4.6-2.5 2.4-4.8 5-2.3 2.6-4.4 5.3c12.4-3.9 25.5-5 37.5-7.1z"/>
			<g id="Clip-Path" clip-path="url(#cp2)">
				<g id="Layer">
					<path id="Layer" class="s1" d="m-21 14.3l85.3-47.3 42.1 75.8-85.4 47.3z"/>
				</g>
			</g>
			<g id="Clip-Path" clip-path="url(#cp3)">
				<g id="Layer">
					<path id="Layer" class="s2" d="m52.8 36.2h11.9q0 0.6-0.1 1.2-0.1 0.6-0.2 1.2-0.2 0.6-0.4 1.2-0.2 0.6-0.4 1.1-2.2 1.1-4.4 2.1-2.2 1-4.5 1.7-2.2 0.8-4.6 1.4-2.3 0.6-4.7 1.1-0.3 0-0.5 0-0.3 0-0.6 0-0.2 0-0.5 0-0.3 0-0.6 0v-7.6q0.8 0 1.5 0 0.8 0 1.5-0.1 0.8 0 1.5-0.1 0.8 0 1.5-0.1 0.4 0 0.8-0.1 0.3-0.1 0.7-0.2 0.3-0.1 0.7-0.3 0.3-0.2 0.6-0.4 0.2-0.2 0.3-0.5 0.2-0.2 0.3-0.4 0.1-0.3 0.1-0.6 0.1-0.2 0.1-0.5m-9.5-22.5h0.2c2.7 0 5 0 6.8 0.1 0.7 0.1 1.2 0.1 1.7 0.2q0.4 0 0.7 0 0.4 0 0.7 0.1 0.4 0 0.7 0.1 0.4 0 0.7 0.1c3.8 0.6 6.5 2.1 8 4.3 1.5 2.1 2.2 6 2.2 11.1v3.3h-21.7v-6.5h9.7q0-0.3 0-0.7 0-0.3 0-0.6-0.1-0.3-0.1-0.6-0.1-0.3-0.2-0.6 0-0.2-0.1-0.4-0.1-0.2-0.2-0.3 0-0.2-0.2-0.4-0.1-0.1-0.2-0.3c-1.1-1-3.9-1.6-8.4-1.6q0 0-0.1 0 0 0.1-0.1 0.1 0 0-0.1 0 0 0-0.1 0zm0 33.5h-1c-3 0-5.6-0.2-7.8-0.3q-1.6-0.2-2.9-0.4-0.8-0.1-1.6-0.3-0.8-0.2-1.5-0.5-0.8-0.3-1.5-0.7-0.7-0.4-1.4-0.9-0.5-0.4-1-0.9-0.5-0.6-0.9-1.1-0.4-0.6-0.7-1.3-0.3-0.6-0.5-1.3-0.3-1.1-0.5-2.2-0.1-1.1-0.2-2.2-0.1-1.1-0.2-2.2 0-1.2 0-2.3v-1.5q0-0.7 0-1.4 0.1-0.6 0.1-1.3 0-0.7 0.1-1.3 0-0.7 0.1-1.4 0-0.2 0.1-0.4 0-0.2 0.1-0.4 0-0.3 0-0.5 0.1-0.2 0.2-0.4 1.9-1.5 4-2.8 2.1-1.3 4.4-2.3 2.2-1.1 4.6-1.8 2.3-0.8 4.7-1.3c1.1 0 2.2-0.1 3.4-0.1v7.5q-5.7 0-7.6 1-0.3 0.1-0.5 0.3-0.2 0.1-0.4 0.3-0.2 0.2-0.4 0.5-0.1 0.2-0.3 0.5-0.1 0.3-0.2 0.6-0.1 0.3-0.2 0.7 0 0.3-0.1 0.7 0 0.3 0 0.7h9.7v6.5h-9.7q0 0.4 0 0.9 0 0.4 0 0.8 0 0.5 0.1 0.9 0.1 0.4 0.2 0.8 0 0.3 0.2 0.5 0.1 0.3 0.2 0.5 0.2 0.2 0.4 0.4 0.2 0.2 0.4 0.4c1.2 0.9 3.9 1.3 8.1 1.3z"/>
					<path id="Layer" fill-rule="evenodd" class="s0" d="m292.1 44h0.7l-0.2 0.9h-0.8zm-0.5 2.1h0.7l-1.3 4.9h-0.7zm-1.4-2.1h0.8l-0.3 0.8h-0.7zm-0.6 2.1h0.8l-1.3 4.8q0 0.1-0.1 0.2 0 0.1 0 0.2-0.1 0.1-0.1 0.2 0 0.2-0.1 0.3 0 0 0 0.1-0.1 0.1-0.1 0.1-0.1 0.1-0.1 0.1 0 0.1-0.1 0.1-0.1 0.1-0.1 0.1-0.1 0.1-0.2 0.1 0 0.1-0.1 0.1-0.1 0.1-0.2 0.1-0.1 0-0.2 0-0.1 0-0.2 0.1-0.1 0-0.2 0-0.1 0-0.2 0h-0.1l0.2-0.7q0.1 0 0.2 0 0 0 0.1 0 0.1 0 0.2 0 0 0 0.1 0 0 0 0.1-0.1 0 0 0 0 0.1 0 0.1 0 0 0 0-0.1 0.1 0 0.1 0 0-0.1 0-0.1 0 0 0.1 0 0-0.1 0-0.1l0.1-0.2c0-0.1 0-0.2 0.1-0.4zm-6.1 0h0.7l-0.2 0.7h0.1q0.1-0.1 0.1-0.2 0.1 0 0.2-0.1 0.1-0.1 0.2-0.1 0.1-0.1 0.2-0.1 0.1 0 0.1-0.1 0.1 0 0.2 0 0.1 0 0.1 0 0.1-0.1 0.2-0.1 0.1 0 0.3 0 0.1 0 0.2 0 0.2 0 0.3 0 0.1 0 0.3 0 0.1 0 0.2 0 0.2 0 0.3 0 0.1 0.1 0.2 0.1 0.2 0 0.3 0 0.1 0 0.1 0.1 0.1 0 0.2 0 0 0.1 0.1 0.1 0 0 0.1 0.1 0.1 0.2 0.2 0.3 0 0.2 0 0.4 0 0.1 0 0.3 0 0.2-0.1 0.4l-0.1 0.5h-0.8l0.1-0.4q0-0.1 0-0.1 0.1-0.1 0.1-0.2 0-0.1 0-0.1 0-0.1 0-0.2 0 0 0-0.1 0 0 0-0.1 0 0 0 0-0.1-0.1-0.1-0.1-0.2-0.3-1.1-0.3-0.3 0-0.5 0-0.2 0-0.5 0.1-0.2 0-0.4 0.1-0.3 0.1-0.5 0.2-0.1 0-0.1 0.1-0.1 0.1-0.1 0.1-0.1 0.1-0.1 0.2-0.1 0.1-0.1 0.1-0.1 0.2-0.1 0.3-0.1 0.1-0.1 0.2-0.1 0.2-0.1 0.3-0.1 0.1-0.1 0.2l-0.6 2.3h-0.8zm-2.6 3.3q0 0 0 0h-0.1zm0.8 0.1q0 0.2-0.1 0.3-0.1 0.2-0.2 0.4-0.1 0.1-0.3 0.2-0.1 0.2-0.3 0.3-0.3 0.1-0.5 0.1-0.3 0.1-0.6 0.2-0.2 0-0.5 0-0.3 0-0.5 0-0.3 0-0.5 0-0.2 0-0.5 0-0.2 0-0.4 0-0.2 0-0.5 0-0.1-0.1-0.2-0.1-0.1 0-0.2-0.1-0.1 0-0.2 0-0.1-0.1-0.2-0.2-0.6-0.5-0.2-2 0-0.2 0.1-0.4 0.1-0.2 0.2-0.4 0.1-0.2 0.2-0.4 0.1-0.2 0.2-0.4 0.1-0.1 0.2-0.2 0.2-0.1 0.3-0.2 0.1-0.1 0.2-0.2 0.2 0 0.3-0.1 0.3 0 0.5-0.1 0.2 0 0.5 0 0.2 0 0.5-0.1 0.2 0 0.4 0.1 0.7-0.1 1.1-0.1 0.1 0.1 0.2 0.1 0.1 0 0.2 0 0.1 0 0.1 0 0.1 0 0.2 0.1 0.1 0 0.2 0 0.1 0.1 0.2 0.1 0.1 0.1 0.2 0.2 0.1 0.1 0.2 0.2 0 0 0 0.1 0.1 0.1 0.1 0.2 0 0.1 0 0.2 0 0.1 0 0.2 0 0 0 0.1 0 0.1 0 0.1 0 0.1 0 0.1 0 0.1 0 0.2c0 0.1 0 0.4-0.1 0.7h-5.4q0 0.1 0 0.2-0.1 0.1-0.1 0.2 0 0.1 0 0.2 0 0 0 0.1 0 0.1 0 0.2 0 0 0 0.1 0 0.1 0.1 0.1 0 0.1 0 0.1 0.1 0.1 0.1 0.1 0.1 0.1 0.2 0.1 0.1 0.1 0.2 0.1 0 0 0.1 0 0.1 0 0.2 0.1 0.1 0 0.1 0 0.1 0 0.2 0 0.1 0 0.1 0h1q0.1 0 0.3 0 0.1 0 0.3 0 0.1 0 0.3-0.1 0.1 0 0.3 0 0.1 0 0.2 0 0-0.1 0.1-0.1 0.1 0 0.2-0.1 0.1 0 0.1-0.1 0.1 0 0.1-0.1 0.1 0 0.1-0.1 0.1-0.1 0.1-0.1 0-0.1 0-0.1zm-0.4-1.4q0.2-0.7-0.1-1-0.1-0.1-0.2-0.1 0-0.1-0.1-0.1-0.1 0-0.2-0.1-0.1 0-0.1 0-0.2 0-0.4 0-0.1-0.1-0.3-0.1-0.1 0-0.3 0-0.2 0-0.3 0h-0.7q0 0-0.1 0-0.1 0-0.1 0-0.1 0-0.1 0.1-0.1 0-0.2 0-0.1 0-0.1 0-0.1 0-0.2 0.1-0.1 0-0.2 0-0.1 0.1-0.1 0.1-0.1 0.1-0.2 0.1 0 0-0.1 0.1 0 0-0.1 0.1 0 0.1 0 0.1-0.1 0.1-0.1 0.2-0.1 0-0.1 0.1 0 0.1-0.1 0.2 0 0 0 0.1zm-11.8-1.9h0.8l-0.2 0.7h0.1q0-0.1 0.1-0.2 0.1-0.1 0.3-0.2 0.1-0.1 0.2-0.1 0.1-0.1 0.3-0.1 0.2-0.1 0.4-0.1 0.2-0.1 0.4-0.1 0.2 0 0.5 0 0.2 0 0.4 0 0.2 0 0.4 0 0.2 0 0.4 0 0.1 0 0.3 0.1 0.2 0 0.4 0 0.1 0 0.2 0.1 0.1 0 0.2 0.1 0.1 0 0.1 0.1 0.1 0 0.2 0.1 0 0.1 0.1 0.2 0 0 0 0.1 0 0.1 0 0.2 0 0 0 0.1 0 0.1 0 0.3 0 0.1 0 0.2-0.1 0.2-0.1 0.3 0 0.1-0.1 0.2l-0.7 2.8h-0.8l0.6-2.4q0.1-0.1 0.1-0.2 0-0.1 0-0.2 0.1-0.2 0.1-0.3 0-0.1 0-0.2 0.1-0.1 0-0.3 0-0.1-0.1-0.2-0.1-0.1-0.2-0.2-0.1-0.1-0.3-0.1-0.1 0-0.3 0-0.1-0.1-0.3-0.1-0.1 0-0.2 0-0.2 0-0.3 0-0.5 0-0.8 0-0.1 0-0.2 0-0.1 0-0.1 0-0.1 0.1-0.2 0.1-0.1 0-0.2 0-0.1 0-0.2 0.1-0.1 0-0.2 0.1-0.1 0-0.2 0.1-0.1 0.1-0.2 0.1-0.1 0.1-0.1 0.1-0.1 0.1-0.1 0.2-0.1 0-0.1 0.1 0 0-0.1 0.1 0 0.1-0.1 0.2 0 0.2 0 0.3-0.1 0.1-0.1 0.2 0 0.1-0.1 0.3l-0.6 2.2h-0.7zm-2.7 3.4h0.8q-0.1 0.2-0.2 0.3-0.1 0.2-0.2 0.4-0.1 0.1-0.2 0.2-0.2 0.2-0.4 0.3-0.2 0.1-0.5 0.1-0.3 0.1-0.5 0.2-0.3 0-0.6 0-0.2 0-0.5 0-0.2 0-0.5 0-0.2 0-0.4 0-0.3 0-0.5 0-0.2-0.1-0.4-0.1-0.1 0-0.3 0-0.1 0-0.2-0.1-0.1 0-0.2-0.1-0.1 0-0.2-0.1-0.6-0.5-0.2-2 0.1-0.2 0.1-0.4 0.1-0.2 0.2-0.4 0.1-0.2 0.2-0.4 0.1-0.2 0.3-0.4 0.1-0.1 0.2-0.2 0.1-0.1 0.2-0.2 0.1-0.1 0.3-0.2 0.1-0.1 0.3-0.1 0.2-0.1 0.4-0.1 0.3 0 0.5-0.1 0.3 0 0.5 0 0.2 0 0.5 0 0.6 0 1 0 0.1 0 0.2 0 0.1 0 0.2 0.1 0.1 0 0.2 0 0 0 0.1 0 0.1 0 0.3 0.1 0.1 0 0.2 0.1 0.1 0.1 0.1 0.1 0.1 0.1 0.2 0.2 0 0.1 0.1 0.2 0 0.1 0 0.2 0 0.1 0.1 0.2 0 0.1 0 0.2 0 0 0 0.1-0.1 0.1-0.1 0.1 0 0.1 0 0.2 0 0 0 0.1 0 0.3-0.2 0.7h-5.3q-0.1 0.1-0.1 0.2 0 0.1 0 0.2 0 0.1 0 0.2 0 0.1 0 0.2 0 0 0 0.1 0 0.1 0 0.1 0 0.1 0 0.1 0 0.1 0.1 0.2 0 0 0.1 0.1 0.1 0 0.2 0.1 0 0 0.1 0 0.1 0.1 0.2 0.1 0.1 0 0.1 0 0.1 0 0.2 0 0.1 0 0.1 0 0.1 0 0.2 0h0.9q0.2 0 0.3 0 0.2 0 0.3 0 0.2 0 0.3 0 0.2 0 0.3 0 0.1-0.1 0.2-0.1 0.1 0 0.2 0 0.1-0.1 0.1-0.1 0.1-0.1 0.2-0.1 0-0.1 0.1-0.1 0-0.1 0.1-0.2 0 0 0.1-0.1 0-0.1 0-0.1zm0.4-1.4q0.1-0.8-0.2-1 0-0.1-0.1-0.1-0.1-0.1-0.1-0.1-0.1-0.1-0.2-0.1-0.1 0-0.2 0-0.1 0-0.3 0-0.1-0.1-0.3-0.1-0.2 0-0.3 0-0.2 0-0.3 0h-0.7q-0.1 0-0.1 0-0.1 0-0.1 0-0.1 0-0.2 0 0 0.1-0.1 0.1-0.1 0-0.2 0-0.1 0-0.1 0.1-0.1 0-0.2 0-0.1 0.1-0.2 0.1 0 0-0.1 0.1 0 0-0.1 0.1 0 0-0.1 0.1 0 0.1-0.1 0.1 0 0.1-0.1 0.2 0 0 0 0.1-0.1 0.1-0.1 0.2 0 0 0 0.1zm-12.7 3v0.1c0 0.2 0 0.3 0 0.3 0.1 0 0.2 0 0.3 0h0.4c0.1 0 0.2 0 0.2 0.1 0 0.1 0 0.1 0 0.3l-0.2 0.6q0 0.1-0.1 0.2 0 0.1-0.1 0.1-0.1 0.1-0.2 0.2-0.1 0-0.2 0h-1l0.1-0.4h0.7q0 0 0.1 0 0 0 0.1 0 0 0 0 0 0.1 0 0.1 0 0-0.1 0-0.1 0.1 0 0.1-0.1 0 0 0 0 0-0.1 0-0.1 0-0.2 0-0.3 0 0 0 0-0.1 0-0.1 0 0 0-0.1 0 0 0 0 0c-0.1 0-0.7 0-0.7 0q0 0 0 0 0 0 0-0.1 0 0 0 0 0 0 0 0l0.3-0.9q-0.1 0-0.2 0-0.2 0-0.3 0-0.1 0-0.2 0-0.1 0-0.2 0 0 0-0.1 0-0.1 0-0.2 0 0-0.1-0.1-0.1-0.1 0-0.1 0-1-0.4-0.5-2.3 0-0.2 0.1-0.4 0-0.2 0.1-0.4 0.1-0.2 0.2-0.4 0.1-0.2 0.3-0.4 0.1-0.1 0.2-0.2 0.1-0.1 0.2-0.2 0.2-0.1 0.3-0.2 0.1-0.1 0.3-0.1 0.2-0.1 0.5-0.1 0.2 0 0.4-0.1 0.3 0 0.5 0 0.3 0 0.5 0 0.2 0 0.4 0 0.2 0 0.4 0 0.2 0.1 0.5 0.1 0.2 0 0.4 0 0.1 0.1 0.2 0.1 0.1 0 0.2 0.1 0.1 0 0.2 0.1 0.1 0.1 0.1 0.2 0.1 0 0.1 0.1 0 0 0.1 0.1 0 0.1 0 0.1 0 0.1 0 0.2 0 0 0 0 0 0.1 0 0.1 0 0.1 0 0.1 0 0.1 0 0.1 0 0.1 0 0.1 0 0.1 0 0.1 0 0.1-0.1 0.1 0 0.1 0 0.1h-0.8q0.2-0.7-0.2-0.9 0 0-0.1 0-0.1-0.1-0.2-0.1-0.1 0-0.1 0-0.1 0-0.2 0-0.1-0.1-0.3-0.1-0.1 0-0.2 0-0.2 0-0.3 0-0.1 0-0.3 0-0.2 0-0.4 0-0.3 0-0.5 0-0.2 0.1-0.4 0.1-0.2 0.1-0.4 0.2-0.1 0-0.2 0.1-0.1 0-0.2 0.1 0 0.1-0.1 0.2 0 0-0.1 0.1 0 0.1-0.1 0.3-0.1 0.1-0.1 0.2-0.1 0.1-0.1 0.3 0 0.1-0.1 0.2 0 0.1 0 0.3-0.1 0.1-0.1 0.2 0 0.1 0 0.3 0 0.1 0 0.2 0 0.1 0 0.2 0.1 0 0.1 0.1 0 0.1 0.1 0.1 0 0.1 0.1 0.1 0.2 0.1 0.5 0.2 0.2 0 0.4 0 0.3 0.1 0.5 0.1 0.2 0 0.5 0 0.2 0 0.4 0 0.2 0 0.4-0.1 0.2 0 0.4 0 0.2-0.1 0.4-0.1 0-0.1 0.1-0.1 0-0.1 0.1-0.1 0 0 0.1-0.1 0 0 0.1-0.1 0-0.1 0-0.1 0.1-0.1 0.1-0.2 0 0 0.1-0.1 0-0.1 0-0.2h0.8q0 0.1-0.1 0.2 0 0.1 0 0.2-0.1 0.1-0.1 0.2-0.1 0.1-0.1 0.2-0.1 0.1-0.1 0.1 0 0.1-0.1 0.2-0.1 0-0.1 0.1-0.1 0.1-0.1 0.1-0.1 0.1-0.2 0.1-0.2 0.1-0.3 0.2-0.1 0-0.2 0.1-0.1 0-0.2 0-0.2 0.1-0.4 0.1-0.2 0-0.4 0-0.1 0-0.3 0-0.2 0-0.4 0zm-8.7-4.8h0.8l-0.2 0.7h0.1q0-0.1 0.2-0.2 0.1-0.1 0.2-0.2 0.1-0.1 0.2-0.1 0.1-0.1 0.3-0.1 0.2-0.1 0.4-0.1 0.2 0 0.4-0.1 0.2 0 0.5 0 0.2 0 0.4 0 0.2 0 0.4 0 0.2 0 0.4 0 0.1 0 0.3 0.1 0.2 0 0.4 0 0.1 0 0.2 0.1 0.1 0 0.2 0.1 0.1 0 0.1 0.1 0.1 0.1 0.2 0.1 0 0.1 0.1 0.2 0 0 0 0.1 0 0.1 0 0.2 0 0.1 0 0.1 0 0.2 0 0.3 0 0.1 0 0.2-0.1 0.2-0.1 0.3 0 0.1-0.1 0.2l-0.6 2.8h-0.8l0.6-2.4q0.1-0.1 0.1-0.2 0-0.2 0.1-0.3 0-0.1 0-0.2 0-0.1 0-0.2 0.1-0.2 0-0.3 0-0.1-0.1-0.3-0.1-0.1-0.2-0.1-0.1-0.1-0.3-0.1-0.1 0-0.3-0.1-0.1 0-0.2 0-0.2 0-0.3 0-0.2 0-0.3 0-0.5 0-0.8 0-0.1 0-0.2 0-0.1 0-0.1 0-0.1 0-0.2 0-0.1 0.1-0.1 0.1-0.2 0-0.3 0-0.1 0.1-0.2 0.1-0.1 0.1-0.2 0.2-0.1 0-0.2 0.1-0.1 0.1-0.1 0.1-0.1 0.1-0.1 0.1 0 0.1-0.1 0.1 0 0.1-0.1 0.2 0 0.1 0 0.2-0.1 0.1-0.1 0.2-0.1 0.2-0.1 0.3 0 0.1-0.1 0.2l-0.6 2.3h-0.7zm-2.7 3.3h0.8q0 0.2-0.1 0.3-0.1 0.2-0.2 0.4-0.1 0.1-0.3 0.3-0.1 0.1-0.3 0.2-0.3 0.1-0.5 0.2-0.3 0-0.6 0.1-0.2 0-0.5 0-0.3 0-0.6 0-0.2 0-0.4 0-0.2 0-0.4 0-0.3 0-0.5 0-0.2 0-0.4 0-0.1 0-0.3-0.1-0.1 0-0.2 0-0.1-0.1-0.2-0.1-0.1-0.1-0.2-0.1-0.6-0.6-0.2-2 0.1-0.3 0.1-0.5 0.1-0.2 0.2-0.4 0.1-0.2 0.2-0.4 0.1-0.2 0.3-0.3 0.1-0.2 0.2-0.3 0.1-0.1 0.2-0.2 0.1-0.1 0.3-0.1 0.1-0.1 0.3-0.1 0.2-0.1 0.4-0.1 0.3-0.1 0.5-0.1 0.3 0 0.5 0 0.2 0 0.5 0 0.6 0 1 0 0.1 0 0.2 0 0.1 0 0.2 0 0.1 0 0.2 0 0.1 0.1 0.1 0.1 0.2 0 0.3 0 0.1 0.1 0.2 0.2 0.1 0 0.1 0.1 0.1 0.1 0.2 0.2 0 0.1 0.1 0.2 0 0 0 0.1 0.1 0.1 0.1 0.2 0 0.1 0 0.2 0 0.1 0 0.2 0 0-0.1 0.1 0 0.1 0 0.1 0 0.1 0 0.2 0 0.3-0.2 0.7h-5.3q-0.1 0.1-0.1 0.2 0 0.1 0 0.2 0 0.1 0 0.2 0 0 0 0.1 0 0.1 0 0.2 0 0 0 0.1 0 0.1 0 0.1 0.1 0.1 0.1 0.1 0.1 0.1 0.1 0.1 0.1 0.1 0.2 0.1 0 0.1 0.1 0.1 0.1 0 0.2 0 0.1 0 0.2 0.1 0 0 0.1 0 0.1 0 0.2 0 0 0 0.1 0h0.9q0.2 0 0.3 0 0.2 0 0.4 0 0.1 0 0.3-0.1 0.1 0 0.3 0 0.1 0 0.1 0 0.1-0.1 0.2-0.1 0.1 0 0.2-0.1 0 0 0.1-0.1 0.1 0 0.1-0.1 0.1 0 0.1-0.1 0-0.1 0.1-0.1 0-0.1 0-0.2zm0.4-1.4q0.2-0.7-0.1-1-0.1 0-0.2-0.1 0 0-0.1-0.1-0.1 0-0.2 0-0.1 0-0.1 0-0.2-0.1-0.4-0.1-0.1 0-0.3 0-0.1 0-0.3 0-0.2 0-0.3 0h-0.7q0 0-0.1 0-0.1 0-0.1 0-0.1 0-0.1 0-0.1 0-0.2 0-0.1 0-0.1 0.1-0.1 0-0.2 0-0.1 0-0.2 0.1-0.1 0-0.1 0.1-0.1 0-0.2 0.1 0 0-0.1 0 0 0.1-0.1 0.2 0 0 0 0.1-0.1 0-0.1 0.1-0.1 0.1-0.1 0.2-0.1 0-0.1 0.1 0 0.1 0 0.2zm-6.6-1.9h0.8l-1 3.6q-0.1 0.2-0.1 0.4-0.1 0.2-0.2 0.4 0 0.3-0.1 0.5-0.1 0.2-0.2 0.4-0.1 0.1-0.2 0.2 0 0.2-0.1 0.3-0.2 0.1-0.3 0.2-0.1 0.1-0.2 0.2-0.1 0-0.2 0.1-0.2 0-0.3 0.1-0.1 0-0.2 0-0.1 0.1-0.3 0.1-0.2 0-0.4 0-0.2 0-0.4 0.1-0.2 0-0.5 0-0.2 0-0.4 0-0.2 0-0.4 0-0.2 0-0.5-0.1-0.2 0-0.4 0-0.2 0-0.4-0.1-0.1 0-0.3-0.1-0.1 0-0.2-0.1 0 0-0.1-0.1-0.1-0.1-0.2-0.2 0-0.1 0-0.1 0 0 0-0.1 0 0 0-0.1 0 0 0-0.1 0 0-0.1 0 0-0.1 0-0.1 0 0 0 0 0.1-0.1 0.1-0.1c0-0.1 0-0.2 0-0.3h0.8q0 0.1 0 0.1 0 0.1 0 0.1 0 0.1 0 0.1 0 0.1 0 0.1 0 0.1 0 0.1 0.1 0 0.1 0.1 0 0 0 0 0.1 0 0.1 0.1 0.2 0 0.4 0.1 0.2 0.1 0.4 0.1 0.2 0 0.4 0 0.2 0 0.4 0 0.2 0 0.4 0 0.2 0 0.4 0 0.2 0 0.4 0 0.2-0.1 0.4-0.1 0.1 0 0.2 0 0.1-0.1 0.2-0.1 0.1 0 0.2-0.1 0.1-0.1 0.2-0.1 0-0.1 0.1-0.1 0-0.1 0.1-0.2 0 0 0.1-0.1 0 0 0-0.1 0-0.1 0.1-0.1 0-0.1 0-0.1 0-0.1 0.1-0.2 0 0 0-0.1 0.1-0.2 0.2-0.5-0.1 0.1-0.2 0.1-0.1 0.1-0.2 0.2-0.1 0.1-0.3 0.1-0.1 0.1-0.2 0.1-0.1 0-0.2 0 0 0-0.1 0-0.1 0.1-0.2 0.1-0.1 0-0.1 0-0.4 0-1 0h-0.9q-0.1 0-0.2 0 0 0-0.1 0-0.1-0.1-0.2-0.1 0 0-0.1 0-0.1 0-0.2 0-0.1 0-0.2-0.1-0.1 0-0.2-0.1-0.1 0-0.2-0.1 0-0.1-0.1-0.2-0.1 0-0.1-0.1-0.1-0.1-0.1-0.2 0-0.1 0-0.2 0-0.2 0-0.4 0-0.1 0-0.3 0-0.1 0-0.3 0.1-0.1 0.1-0.3 0.1-0.3 0.2-0.6 0.1-0.3 0.3-0.6 0.2-0.3 0.5-0.5 0.2-0.2 0.5-0.3 0.1-0.1 0.3-0.1 0.1 0 0.2-0.1 0.1 0 0.2 0 0.1 0 0.2 0 0.2-0.1 0.4-0.1 0.2 0 0.3 0 0.2 0 0.4 0 0.2 0 0.4 0 0.1 0 0.3 0 0.1 0 0.2 0 0.2 0 0.3 0 0.2 0 0.3 0 0.1 0 0.1 0 0.1 0 0.2 0.1 0.1 0 0.1 0 0.1 0 0.2 0.1 0 0 0.1 0.1 0 0 0.1 0.1 0 0 0.1 0.1 0 0.1 0 0.1zm-2.5 0.7q-0.2-0.1-0.4 0-0.3 0-0.5 0-0.3 0-0.5 0.1-0.3 0-0.5 0.1-0.2 0.1-0.4 0.3-0.1 0.1-0.3 0.3-0.1 0.2-0.2 0.4-0.1 0.2-0.1 0.5-0.3 1.1 0.2 1.4 0.2 0.1 0.4 0.1 0.3 0.1 0.5 0.1 0.2 0 0.4 0 0.2 0 0.4 0 0.2 0 0.5 0 0.2 0 0.5 0 0.2 0 0.4-0.1 0.3-0.1 0.5-0.1 0.1-0.1 0.1-0.1 0.1-0.1 0.2-0.2 0.1 0 0.1-0.1 0.1-0.1 0.1-0.2 0.1-0.1 0.1-0.2 0.1-0.1 0.1-0.2 0.1-0.2 0.1-0.3 0.1-0.1 0.1-0.3 0-0.1 0.1-0.2 0-0.1 0-0.2 0-0.1 0-0.2 0-0.2 0-0.3 0 0 0-0.1 0-0.1 0-0.1-0.1-0.1-0.1-0.2-0.1 0-0.1 0-0.2-0.1-0.4-0.2-0.2 0-0.4 0-0.2-0.1-0.4-0.1-0.2 0-0.4 0.1z"/>
					<path id="Layer" fill-rule="evenodd" class="s0" d="m229.9 23.7h-10q0-0.3 0-0.7 0-0.3 0.1-0.6 0-0.4 0.1-0.7 0.1-0.3 0.1-0.7 0.1-0.2 0.2-0.5 0.1-0.3 0.3-0.5 0.1-0.3 0.2-0.5 0.2-0.3 0.3-0.5 0.6-0.7 1.2-1.3 0.6-0.5 1.3-1 0.7-0.4 1.5-0.7 0.8-0.4 1.6-0.5 3.8-0.9 12.8-0.9 1.1-0.1 2.3 0 1.1 0 2.2 0 1.1 0.1 2.3 0.2 1.1 0.1 2.2 0.3 0.6 0.1 1.2 0.3 0.5 0.2 1 0.5 0.6 0.2 1 0.6 0.5 0.3 0.9 0.8 0.4 0.3 0.6 0.7 0.3 0.3 0.6 0.7 0.2 0.4 0.4 0.9 0.1 0.4 0.2 0.8 0.2 0.7 0.3 1.4 0.1 0.7 0.1 1.4 0.1 0.7 0.1 1.4 0 0.7 0 1.4v16.1h-9.6v-3.6h-0.5q-0.3 0.5-0.6 1-0.4 0.5-0.9 1-0.4 0.4-0.9 0.7-0.6 0.4-1.1 0.6-0.5 0.2-0.9 0.3-0.5 0.2-0.9 0.3-0.5 0.1-0.9 0.1-0.5 0.1-1 0.1-2.3 0.2-7.2 0.2-0.8 0-1.6 0-0.8 0-1.5-0.1-0.8 0-1.6-0.1-0.8-0.2-1.6-0.3-0.4-0.1-0.9-0.3-0.5-0.1-0.9-0.4-0.5-0.2-0.9-0.5-0.4-0.2-0.8-0.6-1.9-1.8-1.9-6 0-4.7 2.3-6.8 0.5-0.4 1.1-0.8 0.5-0.3 1.1-0.6 0.7-0.2 1.3-0.4 0.6-0.2 1.3-0.3 1.4-0.2 2.7-0.3 1.4-0.1 2.8-0.2 1.4 0 2.7 0 1.4-0.1 2.8 0 0.6 0 1.2 0 0.6 0 1.3 0 0.6 0.1 1.2 0.2 0.6 0.1 1.2 0.2 0.4 0.1 0.8 0.3 0.3 0.1 0.7 0.3 0.3 0.3 0.6 0.5 0.3 0.3 0.6 0.6h0.5v-1.4c0-2.1-0.4-3.4-1.2-4-0.8-0.6-2.7-0.8-5.7-0.8q-0.8-0.1-1.7-0.1-0.8 0.1-1.6 0.1-0.9 0.1-1.7 0.2-0.8 0.1-1.6 0.2-0.4 0.1-0.7 0.4-0.3 0.2-0.5 0.5-0.2 0.3-0.3 0.7-0.1 0.3-0.1 0.7m6.7 7.1q-5 0-6.3 0.6-0.3 0.1-0.6 0.3-0.2 0.2-0.4 0.5-0.2 0.3-0.3 0.7-0.1 0.3-0.1 0.7-0.1 0.3 0 0.6 0.1 0.4 0.3 0.7 0.2 0.3 0.5 0.5 0.3 0.2 0.6 0.4 0.7 0.1 1.3 0.3 0.7 0.1 1.4 0.2 0.7 0.1 1.4 0.1 0.7 0 1.4-0.1 0.9 0.1 1.8 0.1 0.9 0 1.8-0.1 0.9-0.1 1.8-0.2 0.9-0.2 1.8-0.4 0.4-0.1 0.7-0.3 0.4-0.2 0.6-0.6 0.3-0.3 0.4-0.7 0.1-0.4 0.1-0.8 0-0.4-0.1-0.7-0.1-0.4-0.3-0.7-0.3-0.3-0.6-0.5-0.3-0.2-0.6-0.3-0.3-0.1-0.5-0.1-0.3 0-0.6-0.1-0.2 0-0.5 0-0.3 0-0.5 0-1.8-0.1-4.5-0.1z"/>
					<path id="Layer" fill-rule="evenodd" class="s0" d="m125.4 33.5q0 0 0 0m10 0q-0.5 4.4-2.7 6.3-0.6 0.5-1.2 0.9-0.7 0.4-1.4 0.6-0.6 0.3-1.4 0.5-0.7 0.2-1.4 0.4-1.4 0.1-2.7 0.3-1.3 0.1-2.7 0.2-1.3 0.1-2.6 0.1-1.4 0-2.7 0-1.1 0-2.2 0-1.2 0-2.3-0.1-1.1-0.1-2.2-0.2-1.1-0.1-2.2-0.2-0.7-0.1-1.4-0.3-0.6-0.2-1.3-0.4-0.6-0.3-1.2-0.6-0.6-0.4-1.1-0.7-0.5-0.4-0.9-0.9-0.4-0.4-0.8-0.9-0.3-0.5-0.5-1-0.3-0.6-0.5-1.2-0.2-0.9-0.3-1.8-0.2-0.9-0.3-1.9-0.1-0.9-0.1-1.9 0-0.9 0-1.9 0-0.7 0-1.4 0-0.8 0-1.5 0.1-0.7 0.1-1.4 0.1-0.8 0.2-1.5 0-0.4 0.1-0.9 0.1-0.4 0.2-0.8 0.2-0.5 0.4-0.9 0.1-0.4 0.3-0.8 0.5-0.8 1.1-1.5 0.6-0.7 1.4-1.3 0.7-0.5 1.6-0.9 0.8-0.3 1.7-0.5 1.4-0.2 2.8-0.4 1.4-0.2 2.8-0.3 1.4-0.1 2.8-0.1 1.4 0 2.8 0 3.4 0 5.7 0.1 0.5 0 1 0.1 0.4 0 0.9 0 0.5 0.1 0.9 0.1 0.5 0.1 1 0.2 4.8 0.8 6.6 3.6c1.3 1.9 1.9 5 1.9 9.5l-0.1 2.7h-26.2q0 0.3 0 0.7 0 0.4 0.1 0.7 0 0.4 0.1 0.8 0 0.3 0.1 0.7 0 0.2 0.1 0.4 0.2 0.2 0.3 0.4 0.1 0.2 0.3 0.4 0.2 0.1 0.3 0.3 1.6 1.1 6.8 1.1 0.6 0 1.2 0 0.7 0 1.3-0.1 0.6 0 1.2 0 0.7-0.1 1.3-0.2 0.3 0 0.6-0.1 0.3 0 0.6-0.1 0.3-0.2 0.6-0.3 0.3-0.2 0.5-0.4 0.2-0.1 0.3-0.3 0.1-0.2 0.2-0.5 0.1-0.2 0.1-0.4 0.1-0.2 0.1-0.5zm-9.8-8.1q0-0.3 0-0.6 0-0.2-0.1-0.5 0-0.3 0-0.5-0.1-0.3-0.2-0.6 0-0.1 0-0.3-0.1-0.1-0.2-0.3 0-0.1-0.1-0.2-0.1-0.1-0.2-0.3-1.3-1.3-7-1.3-5.1 0-6.7 0.9-0.2 0.1-0.4 0.3-0.2 0.1-0.4 0.3-0.1 0.2-0.3 0.3-0.1 0.2-0.2 0.5-0.1 0.2-0.2 0.5-0.1 0.3-0.2 0.6 0 0.3 0 0.6-0.1 0.3-0.1 0.6z"/>
					<path id="Layer" class="s0" d="m259.3 14.6h32.9v6.3l-19.5 14.6 20.1-0.2v6.8h-34v-6.4l19.5-14.5-19.1 0.3v-6.9z"/>
					<path id="Layer" class="s0" d="m195.9 26.5h19.1q0 1.2 0.1 2.4 0 1.2-0.1 2.4 0 1.2-0.1 2.4-0.1 1.1-0.2 2.3-0.5 4.8-5.4 5.8c-6.6 1.3-16.6 1.2-23.2 0.4-4.5-0.6-6.6-2.3-7.3-6.8q-0.1-1.6-0.2-3.3-0.1-1.6-0.1-3.3 0-1.6 0-3.3 0.1-1.6 0.3-3.3c0.4-3.7 1.7-6.5 5.8-7.2 4.8-0.8 18.6-1.3 24-0.3 3 0.6 5.3 1.6 6 4.9q0.1 0.6 0.2 1.1 0.1 0.6 0.1 1.2 0 0.5 0.1 1.1 0 0.5 0 1.1h-10.1c0-1.6-0.1-2.3-1.8-2.7-2.2-0.5-8.6-0.4-10.8-0.1-1.9 0.2-3 0.5-3.4 2.6q-0.2 1.1-0.3 2.3 0 1.1 0 2.3 0 1.2 0 2.3 0.1 1.2 0.3 2.3 0 0.6 0.2 1 0.2 0.5 0.6 0.9 0.4 0.4 0.9 0.6 0.4 0.3 1 0.4c2 0.3 9.7 0.6 12.5-0.5 1.2-0.5 1-2.4 1-3.4h-9.3z"/>
					<path id="Layer" fill-rule="evenodd" class="s0" d="m140.2 42.1v-27.5h20.2q7.3 0 8.6 0.2 0.3 0 0.7 0.1 0.3 0.1 0.7 0.2 0.3 0.1 0.6 0.3 0.4 0.1 0.7 0.3 0.4 0.2 0.7 0.5 0.3 0.3 0.6 0.6 0.3 0.4 0.5 0.7 0.2 0.4 0.3 0.8 0.2 0.7 0.3 1.3 0.2 0.7 0.2 1.3 0.1 0.7 0.1 1.3 0 0.7 0 1.4 0 0.5 0 1.1 0 0.5 0 1.1-0.1 0.5-0.2 1.1 0 0.5-0.2 1.1 0 0.3-0.2 0.6-0.1 0.3-0.3 0.6-0.2 0.3-0.4 0.5-0.2 0.3-0.5 0.5-0.3 0.3-0.7 0.5-0.4 0.2-0.8 0.4-0.5 0.1-0.9 0.2-0.4 0.1-0.9 0.2 0.3 0 0.6 0 0.3 0 0.5 0.1 0.3 0 0.6 0.1 0.2 0.1 0.5 0.2 0.2 0.1 0.5 0.2 0.2 0.1 0.4 0.3 0.2 0.1 0.4 0.3 0.1 0.1 0.3 0.3 0.2 0.2 0.3 0.4 0.2 0.3 0.3 0.5 0.1 0.2 0.1 0.5 0.1 0.2 0.1 0.5 0.1 0.6 0.1 1.1 0.1 0.6 0.1 1.2 0 0.6 0 1.2 0 0.6 0 1.2v2.5h-9.3v-1.4q0-0.5 0-0.9 0-0.4 0-0.8 0-0.4-0.1-0.8 0-0.4 0-0.8-0.1-0.2-0.1-0.4-0.1-0.2-0.2-0.4 0-0.2-0.1-0.4-0.1-0.1-0.3-0.3-0.1-0.1-0.2-0.2-0.1-0.1-0.3-0.2-0.1-0.1-0.2-0.1-0.2-0.1-0.3-0.1-0.7-0.1-1.5-0.1c-0.6-0.1-1.3 0-2.2 0h-9.3v7zm9.8-13.9h11.5c0.6 0 1.2 0 1.6-0.1q0.1 0 0.2 0 0.1 0 0.3-0.1 0.1 0 0.2-0.1 0.1 0 0.3-0.1 0.1-0.1 0.2-0.2 0.1-0.1 0.2-0.2 0.1-0.1 0.2-0.3 0.1-0.1 0.1-0.3 0.1-0.2 0.1-0.5 0.1-0.2 0.1-0.5 0-0.2 0-0.5 0.1-0.2 0.1-0.5 0-0.2-0.1-0.5 0-0.2 0-0.5 0-0.2-0.1-0.5 0-0.2-0.1-0.5-0.1-0.1-0.1-0.3-0.1-0.1-0.2-0.3-0.2-0.1-0.3-0.2-0.1-0.1-0.3-0.2-0.1 0-0.2-0.1-0.2 0-0.3 0-0.1-0.1-0.3-0.1-0.1 0-0.2 0l-3.5-0.1h-9.4z"/>
				</g>
			</g>
		</g>
	</g>
</svg>